<svg width="119" height="120" viewBox="0 0 119 120" fill="none" xmlns="http://www.w3.org/2000/svg">
    <path
        d="M57.4926 119.88C57.2777 119.875 57.0659 119.827 56.8694 119.738C56.673 119.65 56.4958 119.523 56.348 119.365C56.2002 119.207 56.0848 119.021 56.0083 118.817C55.9319 118.614 55.896 118.397 55.9026 118.179C55.9157 117.74 56.0994 117.324 56.4139 117.02C56.7285 116.717 57.1484 116.552 57.5826 116.56C58.0168 116.576 58.4272 116.764 58.7249 117.084C59.0225 117.405 59.1834 117.831 59.1726 118.271C59.1596 118.702 58.9811 119.111 58.6749 119.412C58.3688 119.712 57.9591 119.88 57.5326 119.88H57.4926ZM62.4926 118.169C62.4566 117.732 62.5931 117.298 62.8723 116.962C63.1515 116.626 63.5507 116.416 63.9826 116.378C64.4147 116.341 64.8435 116.479 65.1751 116.762C65.5068 117.045 65.7145 117.449 65.7526 117.886C65.7887 118.326 65.6511 118.763 65.37 119.1C65.0889 119.438 64.6872 119.649 64.2526 119.688H64.1226C63.7102 119.692 63.3117 119.537 63.0073 119.255C62.703 118.974 62.5155 118.586 62.4826 118.169H62.4926ZM50.7626 119.303C50.5495 119.273 50.3444 119.201 50.159 119.091C49.9736 118.98 49.8116 118.834 49.6824 118.66C49.5532 118.486 49.4593 118.287 49.4061 118.076C49.3529 117.865 49.3416 117.646 49.3726 117.43C49.402 117.215 49.4733 117.007 49.5824 116.819C49.6915 116.632 49.8362 116.468 50.0082 116.337C50.1802 116.206 50.376 116.111 50.5844 116.057C50.7929 116.003 51.0098 115.992 51.2226 116.023C51.4371 116.051 51.6441 116.121 51.8313 116.23C52.0186 116.34 52.1822 116.486 52.3127 116.661C52.4432 116.835 52.5378 117.035 52.591 117.247C52.6443 117.459 52.655 117.68 52.6226 117.896C52.5693 118.292 52.3756 118.655 52.0777 118.918C51.7797 119.181 51.3977 119.325 51.0026 119.323L50.7626 119.303ZM69.0226 117.42C68.9371 116.989 69.0238 116.542 69.2637 116.176C69.5037 115.809 69.8773 115.554 70.3026 115.466C70.7294 115.38 71.1729 115.467 71.5362 115.71C71.8996 115.953 72.1535 116.331 72.2426 116.762C72.3225 117.194 72.2322 117.64 71.9911 118.005C71.75 118.371 71.3772 118.626 70.9526 118.716C70.8429 118.726 70.7324 118.726 70.6226 118.716C70.2485 118.718 69.8849 118.591 69.592 118.355C69.2992 118.12 69.0947 117.79 69.0126 117.42H69.0226ZM44.1326 117.957C43.7125 117.845 43.3533 117.569 43.134 117.189C42.9146 116.81 42.853 116.358 42.9626 115.932C43.0731 115.507 43.3457 115.143 43.7206 114.921C44.0956 114.699 44.5423 114.637 44.9626 114.748C45.1713 114.802 45.3674 114.897 45.5394 115.029C45.7115 115.16 45.8561 115.325 45.9649 115.513C46.0737 115.701 46.1445 115.909 46.1733 116.126C46.2021 116.342 46.1883 116.562 46.1326 116.772C46.0405 117.127 45.836 117.44 45.5505 117.665C45.265 117.89 44.9144 118.014 44.5526 118.018C44.4075 118.013 44.2634 117.993 44.1226 117.957H44.1326ZM75.4326 115.932C75.2947 115.52 75.3222 115.069 75.5092 114.677C75.6963 114.285 76.0279 113.983 76.4326 113.837C76.8477 113.703 77.2983 113.74 77.6861 113.941C78.0739 114.142 78.3674 114.49 78.5026 114.91C78.6347 115.329 78.5973 115.783 78.3986 116.174C78.1999 116.565 77.8561 116.86 77.4426 116.995C77.2777 117.048 77.1057 117.076 76.9326 117.076C76.5928 117.064 76.2649 116.946 75.9943 116.738C75.7238 116.529 75.524 116.24 75.4226 115.912L75.4326 115.932ZM37.6926 115.861C37.2921 115.697 36.9708 115.38 36.7971 114.979C36.6234 114.579 36.611 114.125 36.7626 113.715C36.9232 113.306 37.2371 112.977 37.6361 112.8C38.0351 112.624 38.4867 112.614 38.8926 112.774C39.0935 112.852 39.277 112.97 39.4326 113.12C39.5882 113.271 39.7129 113.451 39.7993 113.651C39.8858 113.85 39.9324 114.065 39.9364 114.283C39.9404 114.501 39.9017 114.717 39.8226 114.92C39.7041 115.231 39.4957 115.499 39.2245 115.689C38.9534 115.878 38.6321 115.981 38.3026 115.983C38.0894 115.973 37.8795 115.925 37.6826 115.841L37.6926 115.861ZM81.6226 113.675C81.4429 113.275 81.4272 112.819 81.579 112.407C81.7309 111.995 82.0378 111.661 82.4326 111.478C82.6275 111.386 82.8384 111.334 83.0532 111.325C83.268 111.316 83.4824 111.351 83.6841 111.426C83.8858 111.501 84.0708 111.616 84.2284 111.764C84.386 111.912 84.5132 112.09 84.6026 112.288C84.7828 112.689 84.7987 113.147 84.647 113.56C84.4952 113.974 84.1881 114.31 83.7926 114.495C83.5772 114.586 83.3462 114.634 83.1126 114.636C82.8 114.634 82.4943 114.543 82.2307 114.373C81.9671 114.203 81.7563 113.961 81.6226 113.675ZM31.5426 112.996C31.3524 112.895 31.1838 112.757 31.0466 112.59C30.9093 112.422 30.8061 112.229 30.7429 112.021C30.6797 111.813 30.6578 111.595 30.6783 111.378C30.6988 111.161 30.7615 110.951 30.8626 110.759C30.9626 110.567 31.0992 110.396 31.2645 110.257C31.4299 110.118 31.6208 110.014 31.8262 109.95C32.0316 109.886 32.2474 109.863 32.4613 109.884C32.6753 109.905 32.883 109.968 33.0726 110.071C33.2629 110.172 33.4314 110.31 33.5687 110.478C33.7059 110.645 33.8091 110.838 33.8723 111.046C33.9355 111.254 33.9575 111.473 33.9369 111.689C33.9164 111.906 33.8538 112.116 33.7526 112.308C33.6135 112.573 33.4062 112.795 33.1527 112.95C32.8991 113.105 32.6088 113.187 32.3126 113.189C32.0407 113.193 31.7722 113.127 31.5326 112.996H31.5426ZM87.5426 110.729C87.3204 110.352 87.2535 109.902 87.3565 109.476C87.4594 109.05 87.7238 108.682 88.0926 108.451C88.4656 108.223 88.9126 108.153 89.336 108.258C89.7594 108.362 90.1249 108.632 90.3526 109.008C90.5739 109.386 90.6393 109.837 90.5344 110.263C90.4296 110.689 90.1631 111.057 89.7926 111.286C89.5397 111.442 89.2492 111.526 88.9526 111.529C88.6634 111.534 88.3778 111.462 88.1249 111.32C87.872 111.178 87.6608 110.97 87.5126 110.719L87.5426 110.729ZM25.7726 109.463C25.4153 109.213 25.1697 108.831 25.0892 108.399C25.0087 107.967 25.0998 107.52 25.3426 107.155C25.5911 106.795 25.9697 106.549 26.3964 106.469C26.8232 106.389 27.2637 106.483 27.6226 106.73C27.9772 106.98 28.2208 107.361 28.3012 107.79C28.3816 108.22 28.2924 108.664 28.0526 109.028C27.8893 109.253 27.6728 109.433 27.423 109.552C27.1732 109.67 26.898 109.723 26.6226 109.706C26.3128 109.709 26.0082 109.625 25.7426 109.463H25.7726ZM93.0726 107.115C92.9403 106.943 92.843 106.747 92.7863 106.537C92.7297 106.327 92.715 106.108 92.7429 105.892C92.7708 105.676 92.8409 105.468 92.949 105.28C93.0571 105.092 93.2011 104.928 93.3726 104.797C93.5414 104.662 93.7349 104.563 93.9419 104.505C94.1489 104.447 94.3652 104.431 94.5783 104.458C94.7914 104.485 94.997 104.555 95.1832 104.664C95.3693 104.772 95.5323 104.917 95.6626 105.09C95.794 105.263 95.8904 105.46 95.9464 105.671C96.0024 105.881 96.0169 106.101 95.989 106.317C95.9612 106.533 95.8915 106.742 95.784 106.931C95.6765 107.12 95.5333 107.286 95.3626 107.419C95.0778 107.645 94.725 107.767 94.3626 107.763C94.1078 107.767 93.8554 107.711 93.626 107.599C93.3967 107.486 93.1968 107.32 93.0426 107.115H93.0726ZM20.4226 105.283C20.2589 105.141 20.1245 104.968 20.0272 104.773C19.93 104.579 19.8717 104.367 19.8559 104.149C19.8401 103.932 19.8671 103.713 19.9351 103.506C20.0032 103.3 20.1111 103.108 20.2526 102.944C20.5367 102.612 20.9394 102.407 21.3725 102.375C21.8055 102.342 22.2335 102.485 22.5626 102.772C22.8895 103.061 23.0899 103.469 23.1199 103.908C23.1499 104.346 23.0071 104.779 22.7226 105.11C22.5723 105.292 22.3841 105.439 22.1714 105.538C21.9588 105.638 21.727 105.689 21.4926 105.687C21.0894 105.693 20.6981 105.549 20.3926 105.283H20.4226ZM98.1626 102.893C98.0093 102.741 97.8876 102.559 97.8045 102.358C97.7214 102.157 97.6786 101.942 97.6786 101.724C97.6786 101.507 97.7214 101.291 97.8045 101.09C97.8876 100.89 98.0093 100.708 98.1626 100.555C98.3141 100.401 98.4941 100.279 98.6923 100.196C98.8905 100.112 99.103 100.069 99.3176 100.069C99.5323 100.069 99.7448 100.112 99.943 100.196C100.141 100.279 100.321 100.401 100.473 100.555C100.625 100.709 100.746 100.892 100.828 101.094C100.911 101.295 100.953 101.511 100.953 101.729C100.953 101.947 100.911 102.163 100.828 102.365C100.746 102.566 100.625 102.749 100.473 102.904C100.167 103.203 99.7581 103.371 99.3326 103.369C99.1112 103.376 98.8908 103.337 98.6845 103.256C98.4783 103.174 98.2905 103.051 98.1326 102.893H98.1626ZM15.5626 100.515C15.2702 100.189 15.1167 99.7592 15.1354 99.3194C15.1541 98.8796 15.3436 98.4651 15.6626 98.1659C15.8212 98.019 16.0069 97.9053 16.2091 97.8314C16.4112 97.7575 16.6258 97.7247 16.8405 97.735C17.0552 97.7454 17.2658 97.7987 17.4601 97.8917C17.6544 97.9848 17.8285 98.1158 17.9726 98.2773C18.2657 98.6001 18.4207 99.0272 18.4038 99.4653C18.387 99.9034 18.1996 100.317 17.8826 100.616C17.5744 100.895 17.176 101.049 16.7626 101.051C16.5318 101.054 16.303 101.008 16.091 100.916C15.8791 100.823 15.6888 100.687 15.5326 100.515H15.5626ZM102.743 98.1254C102.408 97.8449 102.196 97.4419 102.153 97.0041C102.11 96.5662 102.239 96.1288 102.513 95.787C102.79 95.448 103.188 95.2334 103.62 95.1898C104.053 95.1462 104.485 95.2771 104.823 95.5541C105.155 95.8362 105.366 96.2388 105.409 96.6759C105.452 97.113 105.324 97.5497 105.053 97.8926C104.897 98.0811 104.703 98.2331 104.484 98.338C104.264 98.4429 104.025 98.4982 103.783 98.5C103.394 98.5059 103.015 98.3733 102.713 98.1254H102.743ZM11.2826 95.2201C11.0248 94.8667 10.9158 94.4244 10.9796 93.9899C11.0433 93.5553 11.2745 93.1641 11.6226 92.9018C11.9741 92.643 12.4127 92.536 12.8421 92.6043C13.2715 92.6726 13.6565 92.9107 13.9126 93.2663C14.0405 93.442 14.1327 93.6416 14.1839 93.8536C14.2351 94.0657 14.2442 94.2859 14.2107 94.5015C14.1772 94.7171 14.1018 94.9238 13.9888 95.1097C13.8759 95.2956 13.7276 95.457 13.5526 95.5845C13.2621 95.7969 12.9109 95.9071 12.5526 95.8983C12.2987 95.8956 12.049 95.8328 11.8233 95.7151C11.5976 95.5973 11.4022 95.4278 11.2526 95.2201H11.2826ZM106.763 92.8512C106.581 92.7342 106.425 92.5818 106.302 92.4028C106.18 92.2239 106.094 92.0221 106.049 91.8092C106.004 91.5962 106.002 91.3764 106.042 91.1625C106.082 90.9486 106.164 90.7449 106.283 90.5634C106.397 90.3796 106.546 90.2205 106.721 90.0954C106.896 89.9703 107.094 89.8816 107.303 89.8345C107.512 89.7874 107.729 89.7829 107.94 89.8211C108.151 89.8593 108.352 89.9396 108.533 90.0572C108.715 90.1736 108.872 90.3253 108.996 90.5035C109.119 90.6817 109.207 90.883 109.253 91.0957C109.3 91.3084 109.304 91.5283 109.266 91.7427C109.229 91.9572 109.149 92.1619 109.033 92.3451C108.884 92.5817 108.679 92.7764 108.435 92.9109C108.192 93.0455 107.92 93.1155 107.643 93.1144C107.32 93.121 107.003 93.0293 106.733 92.8512H106.763ZM7.62262 89.46C7.51602 89.2707 7.44748 89.062 7.42096 88.8459C7.39443 88.6297 7.41045 88.4104 7.46809 88.2005C7.52573 87.9906 7.62385 87.7944 7.75678 87.6231C7.88972 87.4518 8.05484 87.3088 8.24262 87.2025C8.61954 86.9864 9.06559 86.9301 9.48339 87.0458C9.90119 87.1615 10.2568 87.4398 10.4726 87.82C10.686 88.2016 10.7417 88.6531 10.6274 89.076C10.5131 89.499 10.2382 89.859 9.86262 90.0775C9.61664 90.2224 9.33726 90.2993 9.05262 90.3002C8.76231 90.2998 8.47723 90.222 8.22615 90.0745C7.97508 89.927 7.76689 89.715 7.62262 89.46ZM110.173 87.1316C109.98 87.0357 109.808 86.9022 109.666 86.7387C109.524 86.5752 109.416 86.3849 109.347 86.1789C109.278 85.9729 109.251 85.7551 109.265 85.5381C109.28 85.3212 109.337 85.1093 109.433 84.9146C109.527 84.7195 109.659 84.5451 109.821 84.4017C109.982 84.2584 110.17 84.1487 110.374 84.0791C110.577 84.0095 110.792 83.9813 111.007 83.9961C111.221 84.0109 111.43 84.0685 111.623 84.1655C112.012 84.3595 112.309 84.7017 112.45 85.1172C112.591 85.5327 112.563 85.9877 112.373 86.3825C112.236 86.6621 112.026 86.8975 111.764 87.0621C111.502 87.2267 111.201 87.3139 110.893 87.3138C110.629 87.3195 110.368 87.2604 110.133 87.1417L110.173 87.1316ZM4.62262 83.386C4.4556 82.9803 4.45327 82.5243 4.61613 82.1169C4.77898 81.7095 5.0939 81.3835 5.49262 81.2095C5.89337 81.0405 6.34381 81.0381 6.74627 81.203C7.14873 81.3678 7.47079 81.6866 7.64262 82.0903C7.80903 82.4972 7.80993 82.9542 7.64512 83.3618C7.48031 83.7695 7.16313 84.0947 6.76262 84.2667C6.56085 84.3558 6.34274 84.4007 6.12262 84.3983C5.80254 84.3951 5.49031 84.2976 5.22398 84.1179C4.95764 83.9382 4.7487 83.6839 4.62262 83.386ZM112.903 81.1387C112.699 81.0661 112.511 80.9534 112.35 80.8071C112.189 80.6608 112.059 80.4838 111.966 80.2863C111.873 80.0887 111.82 79.8745 111.809 79.6559C111.798 79.4374 111.83 79.2188 111.903 79.0128C112.048 78.5983 112.349 78.2589 112.741 78.0691C113.133 77.8793 113.583 77.8546 113.993 78.0005C114.197 78.0731 114.384 78.1857 114.545 78.332C114.706 78.4783 114.836 78.6554 114.929 78.8529C115.022 79.0505 115.076 79.2647 115.087 79.4832C115.097 79.7018 115.065 79.9203 114.993 80.1264C114.882 80.4501 114.674 80.7305 114.398 80.9284C114.121 81.1263 113.791 81.2317 113.453 81.2298C113.252 81.2208 113.055 81.1726 112.873 81.0881L112.903 81.1387ZM2.31262 76.8869C2.19804 76.4695 2.25022 76.0232 2.4579 75.6444C2.66558 75.2656 3.01209 74.9847 3.42262 74.8623C3.83481 74.7516 4.27331 74.8069 4.64617 75.0164C5.01904 75.2259 5.2973 75.5733 5.42262 75.986C5.5368 76.4047 5.48325 76.8522 5.27356 77.2313C5.06388 77.6103 4.71499 77.8903 4.30262 78.0106C4.15397 78.0588 3.9987 78.0827 3.84262 78.0815C3.4951 78.0735 3.15919 77.9533 2.88393 77.7384C2.60868 77.5235 2.4085 77.2252 2.31262 76.8869ZM114.903 74.7509C114.689 74.7024 114.488 74.6109 114.31 74.482C114.133 74.353 113.983 74.1893 113.869 74.0004C113.755 73.8115 113.68 73.6013 113.648 73.3825C113.616 73.1636 113.628 72.9404 113.683 72.7263C113.732 72.5111 113.823 72.3081 113.951 72.129C114.078 71.9499 114.24 71.7984 114.426 71.6834C114.613 71.5684 114.82 71.4922 115.035 71.4592C115.251 71.4262 115.471 71.4371 115.683 71.4913C115.896 71.5398 116.097 71.6313 116.275 71.7602C116.452 71.8892 116.603 72.0529 116.716 72.2418C116.83 72.4307 116.905 72.6408 116.937 72.8597C116.969 73.0786 116.958 73.3017 116.903 73.5159C116.821 73.88 116.618 74.2049 116.329 74.4368C116.04 74.6687 115.682 74.7939 115.313 74.7914C115.175 74.7958 115.037 74.7821 114.903 74.7509ZM0.782619 70.2259C0.710166 69.7923 0.810562 69.3474 1.06178 68.9887C1.313 68.63 1.69451 68.3868 2.12262 68.3126C2.33411 68.2748 2.55088 68.2796 2.7605 68.3269C2.97012 68.3742 3.16844 68.4629 3.34407 68.5881C3.5197 68.7132 3.66917 68.8722 3.7839 69.056C3.89864 69.2398 3.97636 69.4447 4.01262 69.659C4.08524 70.0937 3.98513 70.5399 3.73411 70.9002C3.48309 71.2605 3.10152 71.5057 2.67262 71.5824H2.39262C2.01011 71.5818 1.63982 71.4459 1.34582 71.1982C1.05181 70.9505 0.85259 70.6065 0.782619 70.2259ZM116.203 68.2012C115.989 68.1773 115.782 68.1109 115.594 68.0057C115.406 67.9005 115.24 67.7587 115.106 67.5884C114.972 67.4181 114.873 67.2227 114.814 67.0134C114.755 66.8041 114.738 66.5851 114.763 66.3689C114.786 66.1526 114.852 65.9431 114.956 65.7526C115.06 65.5621 115.2 65.3942 115.368 65.2588C115.536 65.1233 115.729 65.0228 115.936 64.9631C116.143 64.9035 116.359 64.8858 116.573 64.9112C116.786 64.9351 116.993 65.0015 117.181 65.1067C117.37 65.2118 117.535 65.3537 117.669 65.524C117.803 65.6943 117.902 65.8897 117.961 66.099C118.02 66.3083 118.038 66.5273 118.013 66.7435C117.968 67.1471 117.779 67.5199 117.48 67.7908C117.181 68.0616 116.794 68.2113 116.393 68.2113H116.203V68.2012ZM0.0026184 63.3927C-0.0219699 62.9512 0.127392 62.5178 0.417951 62.1876C0.708511 61.8574 1.11656 61.6574 1.55262 61.6313C1.98707 61.6091 2.41258 61.7616 2.73657 62.0554C3.06055 62.3493 3.2568 62.7608 3.28262 63.2003C3.30456 63.6385 3.15533 64.0678 2.86718 64.3955C2.57902 64.7232 2.17507 64.923 1.74262 64.9517H1.62262C1.21182 64.9454 0.818118 64.7842 0.518508 64.4996C0.218899 64.2151 0.034941 63.8275 0.0026184 63.4129V63.3927ZM115.123 59.9103V59.8496V59.7888C115.121 59.5713 115.162 59.3556 115.244 59.1542C115.325 58.9529 115.445 58.7698 115.596 58.6155C115.748 58.4612 115.928 58.3387 116.127 58.2552C116.325 58.1716 116.538 58.1286 116.753 58.1286C117.188 58.1286 117.605 58.3035 117.912 58.6149C118.22 58.9262 118.393 59.3485 118.393 59.7888V59.8496V59.9103C118.393 60.3489 118.221 60.7696 117.916 61.0807C117.61 61.3917 117.196 61.5679 116.763 61.5705C116.331 61.5706 115.917 61.3984 115.61 61.0914C115.303 60.7844 115.128 60.3673 115.123 59.9305V59.9103ZM1.54262 58.321C1.32845 58.3093 1.11866 58.255 0.925273 58.1611C0.731882 58.0673 0.558692 57.9357 0.415628 57.7739C0.272564 57.6122 0.16244 57.4234 0.0915676 57.2185C0.0206955 57.0136 -0.00953206 56.7965 0.0026184 56.5798C0.0309224 56.1455 0.227556 55.7402 0.549701 55.452C0.871847 55.1638 1.29342 55.0161 1.72262 55.041C1.9381 55.0527 2.14919 55.1072 2.34379 55.2016C2.53839 55.296 2.71269 55.4283 2.85668 55.591C3.00067 55.7537 3.11153 55.9436 3.18291 56.1497C3.25428 56.3559 3.28477 56.5743 3.27262 56.7924C3.23974 57.2112 3.05118 57.6019 2.74497 57.8856C2.43876 58.1692 2.03768 58.3248 1.62262 58.321H1.53262H1.54262ZM114.743 53.3505C114.718 53.1343 114.735 52.9153 114.794 52.706C114.853 52.4967 114.952 52.3013 115.086 52.131C115.22 51.9607 115.386 51.8188 115.574 51.7137C115.762 51.6085 115.969 51.542 116.183 51.5182C116.396 51.4928 116.612 51.5105 116.819 51.5701C117.026 51.6298 117.219 51.7302 117.387 51.8657C117.556 52.0012 117.696 52.1691 117.799 52.3596C117.903 52.5501 117.969 52.7596 117.993 52.9759C118.019 53.1915 118.003 53.4103 117.945 53.6195C117.887 53.8288 117.789 54.0243 117.656 54.1948C117.523 54.3653 117.358 54.5073 117.17 54.6126C116.982 54.7179 116.776 54.7844 116.563 54.8082H116.373C115.971 54.811 115.583 54.6638 115.282 54.3948C114.982 54.1258 114.789 53.7539 114.743 53.3505ZM2.10262 51.6903C1.67575 51.6135 1.29587 51.3698 1.04511 51.0117C0.794355 50.6537 0.692878 50.2101 0.762619 49.777C0.836274 49.3491 1.07168 48.967 1.41892 48.7119C1.76616 48.4568 2.19791 48.3486 2.62262 48.4104C3.05094 48.4869 3.43168 48.7325 3.68111 49.0932C3.93053 49.4539 4.02819 49.9002 3.95262 50.3338C3.8887 50.719 3.6918 51.0689 3.39698 51.321C3.10216 51.5731 2.72854 51.7111 2.34262 51.7105L2.10262 51.6903ZM113.623 46.9425C113.571 46.7277 113.561 46.5047 113.595 46.2862C113.629 46.0678 113.705 45.8583 113.82 45.67C113.934 45.4817 114.084 45.3182 114.262 45.1891C114.439 45.06 114.64 44.9678 114.853 44.9178C115.064 44.8651 115.284 44.8552 115.499 44.8888C115.714 44.9224 115.921 44.9989 116.107 45.1137C116.293 45.2285 116.454 45.3794 116.582 45.5578C116.71 45.7361 116.802 45.9384 116.853 46.1529C116.905 46.3669 116.914 46.5893 116.881 46.8072C116.848 47.0251 116.773 47.2342 116.659 47.4224C116.546 47.6106 116.397 47.7743 116.22 47.9039C116.044 48.0334 115.844 48.1265 115.633 48.1775C115.508 48.2086 115.381 48.2255 115.253 48.2281C114.878 48.2301 114.513 48.1043 114.218 47.8711C113.922 47.6379 113.712 47.3108 113.623 46.9425ZM3.36262 45.1203C2.95644 44.9913 2.61475 44.7092 2.40817 44.3324C2.20159 43.9556 2.1459 43.5129 2.25262 43.0957C2.37588 42.6812 2.65329 42.3313 3.02638 42.1198C3.39947 41.9083 3.8391 41.8516 4.25262 41.9618C4.66352 42.0844 5.01075 42.3648 5.22005 42.7432C5.42936 43.1216 5.48411 43.5678 5.37262 43.9865C5.27285 44.3321 5.06478 44.6355 4.77978 44.851C4.49479 45.0665 4.14832 45.1823 3.79262 45.181C3.65563 45.189 3.51819 45.1822 3.38262 45.1608L3.36262 45.1203ZM111.823 40.7369C111.75 40.5316 111.718 40.3138 111.729 40.0959C111.74 39.8781 111.794 39.6646 111.887 39.4679C111.98 39.2711 112.11 39.095 112.271 38.9497C112.432 38.8044 112.619 38.6927 112.823 38.6212C113.232 38.4753 113.683 38.5 114.074 38.6898C114.466 38.8796 114.768 39.219 114.913 39.6335C115.057 40.0483 115.032 40.5041 114.845 40.9007C114.657 41.2974 114.322 41.6026 113.913 41.7493C113.733 41.8132 113.543 41.8474 113.353 41.8505C113.023 41.847 112.703 41.7426 112.433 41.551C112.164 41.3595 111.958 41.0898 111.843 40.7774L111.823 40.7369ZM5.41262 38.8439C5.21468 38.7599 5.03509 38.6371 4.88415 38.4826C4.73322 38.3281 4.61391 38.145 4.53307 37.9437C4.45224 37.7424 4.41147 37.5269 4.4131 37.3096C4.41474 37.0924 4.45876 36.8775 4.54262 36.6775C4.71052 36.2728 5.02993 35.9519 5.43097 35.7849C5.83201 35.618 6.28204 35.6186 6.68262 35.7867C7.08313 35.9588 7.40031 36.284 7.56512 36.6916C7.72993 37.0992 7.72903 37.5562 7.56262 37.9632C7.43802 38.2642 7.22806 38.521 6.95929 38.7012C6.69051 38.8814 6.37499 38.9768 6.05262 38.9755C5.83227 38.9804 5.61361 38.9355 5.41262 38.8439ZM109.343 34.7946C109.151 34.3996 109.122 33.9441 109.26 33.5271C109.399 33.1101 109.694 32.7653 110.083 32.5675C110.275 32.4705 110.484 32.4129 110.699 32.3981C110.913 32.3833 111.128 32.4115 111.331 32.4811C111.535 32.5507 111.723 32.6604 111.884 32.8037C112.046 32.9471 112.178 33.1215 112.273 33.3166C112.368 33.5105 112.425 33.7217 112.439 33.9379C112.454 34.1541 112.426 34.3711 112.357 34.5763C112.288 34.7815 112.18 34.9708 112.039 35.1334C111.897 35.296 111.725 35.4286 111.533 35.5235C111.307 35.6428 111.057 35.7053 110.803 35.7057C110.5 35.7028 110.205 35.6164 109.947 35.4558C109.69 35.2953 109.481 35.0666 109.343 34.7946ZM8.14262 32.77C7.95568 32.6628 7.79152 32.5192 7.65958 32.3475C7.52765 32.1758 7.43054 31.9795 7.37385 31.7697C7.31716 31.5599 7.302 31.3408 7.32925 31.125C7.3565 30.9093 7.42561 30.7011 7.53262 30.5125C7.63685 30.3229 7.777 30.156 7.94504 30.0212C8.11309 29.8865 8.30573 29.7867 8.51194 29.7275C8.71815 29.6682 8.93388 29.6507 9.14677 29.676C9.35966 29.7013 9.56554 29.7688 9.75262 29.8748C9.9404 29.9811 10.1055 30.1241 10.2385 30.2953C10.3714 30.4666 10.4695 30.6629 10.5271 30.8727C10.5848 31.0826 10.6008 31.3019 10.5743 31.5181C10.5478 31.7343 10.4792 31.943 10.3726 32.1322C10.2299 32.3886 10.0221 32.6018 9.77067 32.7495C9.51923 32.8972 9.23334 32.9742 8.94262 32.9725C8.66332 32.9746 8.38806 32.9049 8.14262 32.77ZM106.143 29.2167C105.909 28.8472 105.83 28.3992 105.921 27.9705C106.013 27.5418 106.269 27.1674 106.633 26.9289C106.996 26.6916 107.438 26.6096 107.861 26.7006C108.285 26.7916 108.655 27.0483 108.893 27.4148C109.01 27.5976 109.091 27.802 109.131 28.0164C109.17 28.2309 109.168 28.4511 109.123 28.6645C109.078 28.8779 108.993 29.0803 108.871 29.2602C108.749 29.4401 108.593 29.5939 108.413 29.7128C108.148 29.8864 107.838 29.9779 107.523 29.976C107.254 29.9686 106.991 29.8946 106.758 29.7605C106.524 29.6263 106.327 29.4361 106.183 29.2066L106.143 29.2167ZM11.5126 27.0605C11.3372 26.9347 11.1882 26.7748 11.0745 26.5901C10.9607 26.4055 10.8843 26.1997 10.8499 25.9849C10.8155 25.7701 10.8236 25.5505 10.8739 25.3389C10.9241 25.1273 11.0155 24.9279 11.1426 24.7524C11.2687 24.5755 11.4279 24.4256 11.6112 24.3111C11.7945 24.1965 11.9983 24.1197 12.211 24.0849C12.4236 24.0501 12.641 24.0581 12.8506 24.1083C13.0602 24.1586 13.258 24.2502 13.4326 24.3778C13.7838 24.6371 14.019 25.0268 14.0866 25.4615C14.1541 25.8962 14.0483 26.3402 13.7926 26.6961C13.6401 26.9079 13.4399 27.08 13.2086 27.1979C12.9773 27.3159 12.7216 27.3764 12.4626 27.3743C12.1335 27.3643 11.8155 27.2511 11.5526 27.0504L11.5126 27.0605ZM102.373 24.0235C102.229 23.8522 102.121 23.6533 102.056 23.4386C101.991 23.224 101.969 22.9982 101.993 22.7748C102.016 22.5515 102.084 22.3353 102.192 22.1392C102.3 21.9432 102.447 21.7715 102.623 21.6344C102.957 21.3568 103.387 21.2244 103.818 21.2662C104.249 21.3079 104.646 21.5203 104.923 21.8572C105.06 22.0253 105.163 22.2192 105.226 22.4277C105.29 22.6362 105.312 22.8554 105.291 23.0725C105.271 23.2897 105.208 23.5007 105.107 23.6934C105.006 23.8861 104.869 24.0568 104.703 24.1956C104.419 24.4284 104.068 24.56 103.703 24.5702C103.458 24.5759 103.215 24.5262 102.992 24.4246C102.769 24.323 102.571 24.1721 102.413 23.983L102.373 24.0235ZM15.5226 21.8167C15.3626 21.6709 15.2329 21.4943 15.1411 21.2971C15.0493 21.1 14.9972 20.8864 14.9879 20.6687C14.9786 20.451 15.0123 20.2336 15.0869 20.0292C15.1615 19.8247 15.2757 19.6374 15.4226 19.4782C15.715 19.1545 16.1221 18.961 16.5549 18.9402C16.9878 18.9193 17.4112 19.0727 17.7326 19.3669C17.8918 19.5143 18.0206 19.692 18.1118 19.8899C18.2029 20.0878 18.2547 20.302 18.2639 20.5201C18.2732 20.7383 18.2399 20.9562 18.1659 21.1613C18.0919 21.3664 17.9786 21.5547 17.8326 21.7154C17.6783 21.8844 17.4912 22.0193 17.283 22.1116C17.0748 22.204 16.8499 22.2517 16.6226 22.2519C16.2232 22.2321 15.8453 22.0625 15.5626 21.7762L15.5226 21.8167ZM98.0426 19.2656C97.7385 18.9564 97.5678 18.5378 97.5678 18.1015C97.5678 17.6651 97.7385 17.2465 98.0426 16.9373C98.19 16.7787 98.3672 16.6515 98.5637 16.563C98.7602 16.4745 98.9721 16.4265 99.1871 16.4218C99.4022 16.4171 99.616 16.4558 99.8161 16.5356C100.016 16.6154 100.199 16.7347 100.353 16.8867C100.505 17.0408 100.626 17.2239 100.708 17.4254C100.791 17.6269 100.833 17.8428 100.833 18.061C100.833 18.2791 100.791 18.495 100.708 18.6965C100.626 18.898 100.505 19.0811 100.353 19.2352C100.2 19.3955 100.016 19.5229 99.8135 19.6098C99.6107 19.6968 99.3928 19.7415 99.1726 19.7414C98.7568 19.7195 98.3657 19.5342 98.0826 19.2251L98.0426 19.2656ZM20.1026 17.0385C19.9605 16.8748 19.8519 16.6841 19.783 16.4777C19.7141 16.2712 19.6863 16.0529 19.7011 15.8355C19.716 15.6181 19.7733 15.4058 19.8697 15.2109C19.966 15.016 20.0996 14.8424 20.2626 14.7C20.4241 14.5578 20.6117 14.4491 20.8148 14.3802C21.0178 14.3114 21.2322 14.2837 21.4458 14.2987C21.6594 14.3137 21.8679 14.3712 22.0595 14.4679C22.2512 14.5645 22.4221 14.6985 22.5626 14.862C22.7053 15.0251 22.8147 15.2152 22.8844 15.4213C22.9541 15.6274 22.9828 15.8455 22.9689 16.0629C22.9549 16.2803 22.8986 16.4928 22.8031 16.688C22.7077 16.8833 22.5749 17.0574 22.4126 17.2005C22.1154 17.4609 21.7357 17.6046 21.3426 17.6054C21.1116 17.5955 20.8853 17.5363 20.6785 17.4316C20.4716 17.3269 20.289 17.1792 20.1426 16.998L20.1026 17.0385ZM93.2126 15.0139C93.0422 14.8818 92.8992 14.7171 92.7919 14.529C92.6845 14.3409 92.6149 14.1332 92.5871 13.9178C92.5592 13.7024 92.5736 13.4836 92.6295 13.2739C92.6853 13.0641 92.7816 12.8677 92.9126 12.6957C93.1761 12.348 93.5648 12.1199 93.9937 12.0611C94.4227 12.0023 94.8573 12.1176 95.2026 12.3818C95.3741 12.514 95.5182 12.6791 95.6266 12.8677C95.735 13.0563 95.8056 13.2647 95.8344 13.4809C95.8632 13.6972 95.8496 13.9171 95.7944 14.128C95.7392 14.3389 95.6434 14.5367 95.5126 14.7102C95.3574 14.9113 95.1584 15.0734 94.9312 15.184C94.704 15.2946 94.4547 15.3507 94.2026 15.3479C93.8577 15.3392 93.5247 15.2186 93.2526 15.0038L93.2126 15.0139ZM25.2126 12.7868C24.974 12.4262 24.8833 11.9858 24.9598 11.5587C25.0363 11.1317 25.2741 10.7516 25.6226 10.4989C25.9823 10.2489 26.4252 10.1532 26.8543 10.2329C27.2835 10.3126 27.664 10.5611 27.9126 10.9241C28.1524 11.2879 28.2416 11.7323 28.1612 12.162C28.0808 12.5916 27.8372 12.9722 27.4826 13.2221C27.2106 13.4172 26.886 13.5232 26.5526 13.5257C26.2876 13.519 26.0282 13.4473 25.7966 13.3168C25.5649 13.1864 25.368 13.001 25.2226 12.7766L25.2126 12.7868ZM87.9626 11.3695C87.5901 11.1425 87.3218 10.7751 87.2168 10.348C87.1118 9.92088 87.1786 9.46902 87.4026 9.09177C87.6184 8.7143 87.9722 8.43794 88.3876 8.3224C88.803 8.20685 89.2466 8.2614 89.6226 8.47427C89.9931 8.70308 90.2596 9.07045 90.3644 9.49679C90.4693 9.92312 90.4039 10.3741 90.1826 10.752C90.0371 10.9991 89.8306 11.2036 89.5834 11.3456C89.3362 11.4876 89.0568 11.5621 88.7726 11.5618C88.4937 11.5606 88.2193 11.4912 87.9726 11.3594L87.9626 11.3695ZM30.7426 9.17277C30.6415 8.98082 30.5788 8.77052 30.5583 8.55397C30.5378 8.33742 30.5597 8.11888 30.6229 7.91095C30.6861 7.70303 30.7893 7.50982 30.9266 7.34242C31.0638 7.17502 31.2324 7.03675 31.4226 6.93555C31.8049 6.73075 32.2516 6.68711 32.6655 6.81414C33.0794 6.94117 33.427 7.22857 33.6326 7.61379C33.8346 8.00352 33.8765 8.45822 33.7492 8.87904C33.6218 9.29986 33.3356 9.65279 32.9526 9.86114C32.7184 9.98647 32.4576 10.0525 32.1926 10.0535C31.8949 10.0533 31.603 9.97004 31.349 9.81289C31.0949 9.65573 30.8886 9.43074 30.7526 9.16264L30.7426 9.17277ZM82.3126 8.3528C82.1163 8.26323 81.9394 8.13516 81.7922 7.97599C81.645 7.81681 81.5304 7.62966 81.4551 7.4254C81.3798 7.22114 81.3452 7.00378 81.3534 6.7859C81.3615 6.56803 81.4123 6.35396 81.5026 6.15604C81.5901 5.95762 81.7156 5.77879 81.8719 5.6299C82.0283 5.48101 82.2122 5.36503 82.4132 5.28874C82.6142 5.21245 82.8281 5.17734 83.0426 5.18546C83.2571 5.19359 83.4678 5.24478 83.6626 5.33607C84.0574 5.51909 84.3644 5.85314 84.5162 6.26494C84.668 6.67675 84.6524 7.1327 84.4726 7.53282C84.3462 7.82835 84.1385 8.08089 83.8744 8.26036C83.6102 8.43983 83.3007 8.53868 82.9826 8.54514C82.7509 8.52577 82.526 8.45674 82.3226 8.34266L82.3126 8.3528ZM36.6226 6.20668C36.4662 5.79589 36.4773 5.33901 36.6536 4.93655C36.8299 4.53409 37.1569 4.21901 37.5626 4.06056C37.9673 3.90442 38.4165 3.9156 38.8131 4.09174C39.2097 4.26787 39.522 4.59482 39.6826 5.00201C39.839 5.4128 39.8279 5.86965 39.6516 6.27211C39.4753 6.67457 39.1484 6.98968 38.7426 7.14813C38.5553 7.22484 38.3547 7.26269 38.1526 7.25947C37.8226 7.26022 37.4999 7.16015 37.227 6.97232C36.954 6.78448 36.7434 6.51765 36.6226 6.20668ZM76.3426 6.0042C75.9292 5.86954 75.5854 5.57434 75.3867 5.18339C75.1879 4.79244 75.1505 4.33767 75.2826 3.91882C75.4178 3.49953 75.7113 3.15137 76.0991 2.95034C76.4869 2.74931 76.9375 2.71173 77.3526 2.84577C77.7567 2.99048 78.0881 3.29046 78.2753 3.68076C78.4624 4.07105 78.4902 4.52026 78.3526 4.93114C78.2468 5.26591 78.0387 5.55803 77.7583 5.76543C77.478 5.97282 77.1398 6.08479 76.7926 6.08521C76.646 6.08085 76.501 6.05352 76.3626 6.0042H76.3426ZM42.8226 3.97956C42.7668 3.76951 42.7525 3.55037 42.7807 3.33472C42.8089 3.11907 42.8788 2.91116 42.9866 2.72299C43.0945 2.53483 43.238 2.37012 43.4089 2.23831C43.5798 2.10649 43.7748 2.01017 43.9826 1.95492C44.4016 1.84359 44.8471 1.90457 45.2218 2.12459C45.5965 2.3446 45.87 2.70577 45.9826 3.12921C46.0923 3.55474 46.0306 4.00691 45.8113 4.38649C45.5919 4.76607 45.2328 5.04206 44.8126 5.15386C44.6761 5.19388 44.5347 5.21432 44.3926 5.21459C44.0356 5.20621 43.691 5.08007 43.4112 4.85533C43.1315 4.63059 42.9318 4.31952 42.8426 3.96943L42.8226 3.97956ZM70.1526 4.38448C69.7259 4.28993 69.3537 4.02798 69.1175 3.65604C68.8813 3.28411 68.8005 2.83255 68.8926 2.40034C68.9794 1.96975 69.2313 1.59156 69.5931 1.34866C69.9549 1.10577 70.397 1.01799 70.8226 1.10457C71.2459 1.19252 71.6177 1.44602 71.8574 1.80997C72.0971 2.17391 72.1852 2.6189 72.1026 3.04824C72.0306 3.42438 71.8316 3.76342 71.5397 4.00724C71.2477 4.25106 70.8811 4.38442 70.5026 4.38448H70.1526ZM49.2226 2.47121C49.1915 2.25382 49.2031 2.03234 49.2566 1.81948C49.3102 1.60662 49.4047 1.40655 49.5347 1.23071C49.6648 1.05487 49.8278 0.906713 50.0145 0.79474C50.2011 0.682768 50.4078 0.609189 50.6226 0.578176C50.8355 0.54674 51.0524 0.558246 51.2608 0.612067C51.4692 0.665888 51.6651 0.760941 51.8371 0.891746C52.009 1.02255 52.1537 1.18653 52.2628 1.37421C52.3719 1.5619 52.4432 1.76957 52.4726 1.98529C52.5037 2.20002 52.4927 2.41888 52.4402 2.62929C52.3877 2.83971 52.2946 3.03755 52.1664 3.21151C52.0382 3.38548 51.8774 3.53215 51.6932 3.6431C51.5089 3.75405 51.3048 3.8271 51.0926 3.85809H50.8526C50.4643 3.85587 50.0894 3.71423 49.7946 3.45842C49.4998 3.2026 49.3042 2.84919 49.2426 2.46108L49.2226 2.47121ZM63.8326 3.48353C63.4008 3.44738 63.0007 3.23968 62.7196 2.90585C62.4386 2.57202 62.2994 2.13917 62.3326 1.70184C62.3503 1.48445 62.4101 1.27272 62.5086 1.07875C62.6071 0.884766 62.7424 0.712336 62.9068 0.571318C63.0712 0.4303 63.2614 0.323452 63.4666 0.256883C63.6718 0.190314 63.8879 0.165333 64.1026 0.183356C64.3174 0.20123 64.5265 0.261753 64.7181 0.361489C64.9098 0.461225 65.0801 0.598218 65.2194 0.764619C65.3587 0.93102 65.4642 1.12359 65.53 1.3313C65.5957 1.53901 65.6204 1.75778 65.6026 1.97515C65.5674 2.38953 65.3788 2.77515 65.0747 3.05482C64.7706 3.3345 64.3734 3.48762 63.9626 3.48353H63.8326ZM55.7526 1.70184C55.746 1.48429 55.7819 1.26757 55.8583 1.06413C55.9348 0.8607 56.0502 0.674591 56.198 0.516513C56.3458 0.358434 56.523 0.23152 56.7194 0.143071C56.9159 0.0546222 57.1277 0.00638279 57.3426 0.00114603C57.5575 -0.00696545 57.7719 0.0280451 57.9734 0.104176C58.1748 0.180307 58.3594 0.296039 58.5165 0.444716C58.6736 0.593393 58.8001 0.772083 58.8887 0.970463C58.9773 1.16884 59.0262 1.38299 59.0326 1.6006C59.0393 1.81865 59.0034 2.0359 58.9271 2.23991C58.8508 2.44393 58.7355 2.63072 58.5879 2.7896C58.4402 2.94849 58.263 3.07635 58.0665 3.16589C57.87 3.25542 57.658 3.30488 57.4426 3.31142C57.0101 3.31693 56.5927 3.15028 56.2804 2.84734C55.968 2.5444 55.7857 2.1294 55.7726 1.6917L55.7526 1.70184Z"
        fill="#60CE70" />
</svg>