<svg width="140" height="138" viewBox="0 0 140 138" fill="none" xmlns="http://www.w3.org/2000/svg">
    <path
        d="M70 0L78.2624 43.9343L111.145 13.1778L91.6312 53.5085L136.574 47.6778L96.7376 69L136.574 90.3222L91.6312 84.4915L111.145 124.822L78.2624 94.0657L70 138L61.7376 94.0657L28.855 124.822L48.3688 84.4915L3.42604 90.3222L43.2624 69L3.42604 47.6778L48.3688 53.5085L28.855 13.1778L61.7376 43.9343L70 0Z"
        fill="#24A556" />
    <path
        d="M49.41 74V71.69H53.458C54.514 71.69 55.438 71.4627 56.23 71.008C57.0367 70.5533 57.66 69.9227 58.1 69.116C58.5547 68.2947 58.782 67.3487 58.782 66.278C58.782 65.222 58.5547 64.2907 58.1 63.484C57.6453 62.6773 57.0147 62.0467 56.208 61.592C55.416 61.1373 54.4993 60.91 53.458 60.91H49.41V58.6H53.524C54.6387 58.6 55.6727 58.798 56.626 59.194C57.5793 59.5753 58.408 60.118 59.112 60.822C59.8307 61.5113 60.388 62.3253 60.784 63.264C61.18 64.188 61.378 65.2 61.378 66.3C61.378 67.3853 61.18 68.3973 60.784 69.336C60.388 70.2747 59.838 71.096 59.134 71.8C58.43 72.4893 57.6013 73.032 56.648 73.428C55.6947 73.8093 54.668 74 53.568 74H49.41ZM47.672 74V58.6H50.202V74H47.672ZM64.0672 74V63.44H66.4872V74H64.0672ZM66.4872 68.126L65.6512 67.708C65.6512 66.3733 65.9445 65.2953 66.5312 64.474C67.1325 63.638 68.0345 63.22 69.2372 63.22C69.7652 63.22 70.2418 63.3153 70.6672 63.506C71.0925 63.6967 71.4885 64.0047 71.8552 64.43L70.2712 66.058C70.0805 65.8527 69.8678 65.706 69.6332 65.618C69.3985 65.53 69.1272 65.486 68.8192 65.486C68.1445 65.486 67.5872 65.6987 67.1472 66.124C66.7072 66.5493 66.4872 67.2167 66.4872 68.126ZM77.8001 74.22C76.9055 74.22 76.1061 74.022 75.4021 73.626C74.7128 73.23 74.1701 72.6873 73.7741 71.998C73.3928 71.294 73.2021 70.4873 73.2021 69.578V63.44H75.6221V69.468C75.6221 69.9813 75.7028 70.4213 75.8641 70.788C76.0401 71.14 76.2895 71.4113 76.6121 71.602C76.9495 71.7927 77.3455 71.888 77.8001 71.888C78.5041 71.888 79.0395 71.6827 79.4061 71.272C79.7875 70.8467 79.9781 70.2453 79.9781 69.468V63.44H82.3981V69.578C82.3981 70.502 82.2001 71.316 81.8041 72.02C81.4228 72.7093 80.8875 73.252 80.1981 73.648C79.5088 74.0293 78.7095 74.22 77.8001 74.22ZM89.6714 78.62C88.5567 78.62 87.5814 78.4147 86.7454 78.004C85.9094 77.608 85.2347 77.0433 84.7214 76.31L86.3054 74.726C86.7307 75.254 87.2147 75.65 87.7574 75.914C88.3 76.178 88.9527 76.31 89.7154 76.31C90.6687 76.31 91.424 76.0607 91.9814 75.562C92.5387 75.078 92.8174 74.4107 92.8174 73.56V70.964L93.2354 68.632L92.8174 66.278V63.44H95.2374V73.56C95.2374 74.572 95.0027 75.452 94.5334 76.2C94.064 76.9627 93.4114 77.5567 92.5754 77.982C91.7394 78.4073 90.7714 78.62 89.6714 78.62ZM89.5614 73.78C88.6227 73.78 87.772 73.5527 87.0094 73.098C86.2614 72.6287 85.6674 71.9907 85.2274 71.184C84.802 70.3773 84.5894 69.4753 84.5894 68.478C84.5894 67.4807 84.802 66.586 85.2274 65.794C85.6674 65.002 86.2614 64.3787 87.0094 63.924C87.772 63.4547 88.6227 63.22 89.5614 63.22C90.3974 63.22 91.1307 63.3887 91.7614 63.726C92.392 64.0633 92.8834 64.5327 93.2354 65.134C93.5874 65.7207 93.7634 66.41 93.7634 67.202V69.798C93.7634 70.5753 93.58 71.2647 93.2134 71.866C92.8614 72.4673 92.37 72.9367 91.7394 73.274C91.1087 73.6113 90.3827 73.78 89.5614 73.78ZM90.0454 71.492C90.632 71.492 91.1454 71.3673 91.5854 71.118C92.0254 70.8687 92.3627 70.524 92.5974 70.084C92.8467 69.6293 92.9714 69.1013 92.9714 68.5C92.9714 67.8987 92.8467 67.378 92.5974 66.938C92.3627 66.4833 92.0254 66.1313 91.5854 65.882C91.1454 65.6327 90.632 65.508 90.0454 65.508C89.4587 65.508 88.938 65.6327 88.4834 65.882C88.0434 66.1313 87.6987 66.4833 87.4494 66.938C87.2 67.378 87.0754 67.8987 87.0754 68.5C87.0754 69.0867 87.2 69.6073 87.4494 70.062C87.6987 70.5167 88.0434 70.8687 88.4834 71.118C88.938 71.3673 89.4587 71.492 90.0454 71.492Z"
        fill="white" />
</svg>