<svg width="230" height="239" viewBox="0 0 230 239" fill="none" xmlns="http://www.w3.org/2000/svg">
    <rect x="62.7902" y="29.3713" width="69.2348" height="69.2348" rx="34.6174"
        transform="rotate(10.0488 62.7902 29.3713)" fill="#1C9EC1" />
    <path d="M92.4774 26.3381L91.7981 26.041L27.9415 175.679L28.6208 175.976L92.4774 26.3381Z" fill="#3F3F3F" />
    <path d="M114.268 35.8674L113.589 35.5703L49.7325 185.208L50.4118 185.505L114.268 35.8674Z" fill="#3F3F3F" />
    <path d="M136.054 45.3947L135.374 45.0977L71.5177 194.736L72.197 195.033L136.054 45.3947Z" fill="#3F3F3F" />
    <path d="M157.847 54.924L157.167 54.627L93.3106 204.265L93.9899 204.562L157.847 54.924Z" fill="#3F3F3F" />
    <path d="M179.639 64.4572L178.96 64.1602L115.104 213.798L115.783 214.095L179.639 64.4572Z" fill="#3F3F3F" />
    <path d="M201.434 73.9865L200.755 73.6895L136.899 223.327L137.578 223.624L201.434 73.9865Z" fill="#3F3F3F" />
    <path d="M212.269 101.663L64.4524 37.0195L64.1589 37.7072L211.976 102.351L212.269 101.663Z" fill="#3F3F3F" />
    <path d="M202.855 123.723L55.0383 59.0801L54.7448 59.7678L202.562 124.411L202.855 123.723Z" fill="#3F3F3F" />
    <path d="M193.445 145.776L45.6281 81.1328L45.3347 81.8205L193.151 146.464L193.445 145.776Z" fill="#3F3F3F" />
    <path d="M184.031 167.839L36.2141 103.195L35.9206 103.883L183.737 168.526L184.031 167.839Z" fill="#3F3F3F" />
    <path d="M174.615 189.899L26.7981 125.256L26.5046 125.944L174.321 190.587L174.615 189.899Z" fill="#3F3F3F" />
    <path d="M165.201 211.964L17.384 147.32L17.0905 148.008L164.907 212.651L165.201 211.964Z" fill="#3F3F3F" />
    <rect x="77.9328" y="59.8772" width="69.2348" height="69.2348" rx="34.6174"
        transform="rotate(10.0488 77.9328 59.8772)" fill="#26B0D5" />
</svg>